<svg id="Capa_1" data-name="Capa 1" xmlns="http://www.w3.org/2000/svg" viewBox="0 0 306 76.91"><defs><style>.cls-1{fill:#f04e3e;}</style></defs><title>rectlogo</title><path class="cls-1" d="M98.32,47.41v4.75a5,5,0,0,1,3.73,1.17c1.6,1.62,1.57,10,1.53,13.1V67.7a3.4,3.4,0,0,1-2.76,3.7h-4.3c-.23-9.84-1.86-16.57-5.1-21.07S84,44.39,80.2,43.12c-1-.34-2-.66-2.85-1a11,11,0,0,1-5.92-5.76,3.63,3.63,0,0,0,1.81-1.87c1-2.48-1.15-4.64-2.9-6.39a14.3,14.3,0,0,1-1.19-1.27,11.43,11.43,0,0,1-.9-4.54,11.81,11.81,0,0,0-2.57-7.62c-4-5.32-11.57-5.12-12.48-5.08-1.1,0-3.05.4-7.36,3.2-1.44,1-2.72,1.88-3.46,2.43H33.25c-3,0-5,1.88-5,4.67a10.15,10.15,0,0,0,3.34,6.78,11.47,11.47,0,0,0,7.9,3.52c.45.05,1.39.27,3.83.79C48.05,32,49,33.13,49,33.26c1.29,1.92.29,4.86-.87,8.28-.2.57-.39,1.14-.58,1.72L32.63,40.67h-.06c-5.32-.77-10.38,1.15-12.88,4.89A9,9,0,0,0,18.31,49,13.11,13.11,0,0,0,3.78,70.19L21.65,86.46,39.41,70.29l.08-.08a13,13,0,0,0,3.7-10.89l7.92,3.54a51.71,51.71,0,0,1,2.83,8.56,16,16,0,0,1-1.64.72C49.21,73.36,44,75.39,44,84.08v2.38H64.76L66.7,71.62a20.55,20.55,0,0,0,2.83,3.54c.24.24.49.47.74.69-2,1.78-3,4.54-3,8.24v2.37H86.07V83.28s0-4.75,0-4.75-6.43,0-13.19-6.76c-2.76-2.75-5.66-6.62-4.56-10,.67-2.09,2.65-2.89,6.24-2.89,4.57,0,6.89,1.79,6.89,5.32h4.75c0-5-2.65-7.4-4.88-8.58a14.78,14.78,0,0,0-6.76-1.5,14.34,14.34,0,0,0-6.72,1.44A8.85,8.85,0,0,0,63,63L60.59,81.71H49c.62-3.4,2.7-4.22,5-5.14,1.58-.62,3.21-1.26,4.2-2.76.78-1.17.69-2.72-.36-6.12-.58-1.9-1.48-4.4-2.68-7.43-1.72-4.38-3.57-8.63-4.08-9.79-.25-2.17.65-4.82,1.54-7.4C54,39,55.58,34.48,53,30.6c-1.3-1.91-4.13-3.31-8.66-4.29-3-.66-4.41-.89-4.53-.91h-.2a7.34,7.34,0,0,1-5.42-3,6.07,6.07,0,0,1-1.1-2.05c-.07-.27.08-.43.18-.43H44l.64-.5s1.75-1.36,3.79-2.69c3.65-2.38,4.8-2.43,4.84-2.43h.15s5.88-.28,8.45,3.17a7.29,7.29,0,0,1,1.63,5,16,16,0,0,0,1.31,6.3A9.73,9.73,0,0,0,67,31.43c.24.24.56.56.87.9-.35,0-.8,0-1.34,0-3,0-4.67-.06-5.79-1.22-1.55-1.63-2.34-5.69-2.34-12.08H53.63c0,8,1.13,12.72,3.65,15.36s6,2.69,9.23,2.69h.22c.7,3.15,4.12,7.47,8.81,9.37,1,.42,2.1.78,3.12,1.13,3.37,1.14,6.55,2.22,8.89,5.47,2.84,4,4.22,10.71,4.22,20.66v2.37l9.54,0,.25-.06a8.11,8.11,0,0,0,6.75-8.4V66.48c0-3.87.26-13.57-2.74-16.6C103.91,48.17,101.35,47.41,98.32,47.41ZM36.26,66.91,21.66,80.2,7.07,66.92A8.47,8.47,0,0,1,19.18,55.08a7.55,7.55,0,0,1,.64.74l1.84,2.39,1.83-2.39A8.47,8.47,0,1,1,36.87,66.2C36.68,66.45,36.47,66.68,36.26,66.91Zm4.43-13.79a13.1,13.1,0,0,0-17.85-3,4.18,4.18,0,0,1,.72-2c1.24-1.86,4.29-3.47,8.33-2.89l14.57,2.52a12.41,12.41,0,0,0,0,3.75l0,.3.13.28s.85,1.93,2,4.58ZM74.37,78.78a25.81,25.81,0,0,0,6.16,2.93H72.29A3.66,3.66,0,0,1,74.37,78.78Z" transform="translate(0 -9.55)"/><path class="cls-1" d="M123.9,52l-.07-2.49a2.68,2.68,0,0,0,2.29-1.33,5.18,5.18,0,0,0,.57-2.47l-.07-4.8-.81-1.81.78-.76-.09-5.5A3.91,3.91,0,0,0,124,34.35a4.79,4.79,0,0,0-.89,2.88v.09A7.33,7.33,0,0,0,124.29,41a4.36,4.36,0,0,1-3-.32,3.46,3.46,0,0,1-1.88-2.38,10.47,10.47,0,0,1-.3-2.49,6.37,6.37,0,0,1,1-3.6A8.6,8.6,0,0,1,125,28.83a23.52,23.52,0,0,1,7-.94h.65l-.17,4.63L138,27.13l4.5,2.36L134.14,38,142.8,49.4l-5.3,2.38L132,45.24l0,1a11.4,11.4,0,0,1-.14,1.31,8.75,8.75,0,0,1-.59,2.07A3.69,3.69,0,0,1,130,51.24a5.61,5.61,0,0,1-2.37.66,21.67,21.67,0,0,1-2.42.11Z" transform="translate(0 -9.55)"/><path class="cls-1" d="M163.94,49.62a4.87,4.87,0,0,1-3.19-1.09,7,7,0,0,1-2.1-2.92,10.65,10.65,0,0,1-.72-4.1c0-.44,0-.87.11-1.29a3,3,0,0,1-1.7.68l-.24,0a3.94,3.94,0,0,1-1.75-.5,2.12,2.12,0,0,0,.53.46c.2.11.41.2.59.28l.3.13c.08.05.14.09.14.13a10.77,10.77,0,0,1-.8,4,7.09,7.09,0,0,1-2.29,3.06,5.74,5.74,0,0,1-3.58,1.13H149a4.77,4.77,0,0,1-3.18-1.09,6.78,6.78,0,0,1-2.12-2.92,10.55,10.55,0,0,1-.7-3.93V41.5a10.61,10.61,0,0,1,.85-4.08,7.28,7.28,0,0,1,2.2-2.92,5.08,5.08,0,0,1,3.23-1.11,6.11,6.11,0,0,1,4.34,1.81,8.27,8.27,0,0,1,.55.63,6.27,6.27,0,0,0,1.4,1.27,2.44,2.44,0,0,0,1.38.42,1.7,1.7,0,0,0,.39,0,3.84,3.84,0,0,0,2.12-1.38s0-.06,0-.06a6.66,6.66,0,0,1,2-2,5.11,5.11,0,0,1,2.66-.72,6,6,0,0,1,4.6,2.1,8.53,8.53,0,0,1,1.93,4.7,3.07,3.07,0,0,0,1.59-.57,3.36,3.36,0,0,0,1.18-2.1c.07-.11.15-.18.24-.18l0,0a.35.35,0,0,1,.28.26,3.38,3.38,0,0,1,.2,1.14,4.65,4.65,0,0,1-.07.83A5.23,5.23,0,0,1,172.16,43a3.7,3.7,0,0,1-1.94.55,3.92,3.92,0,0,1-1.13-.17,6.13,6.13,0,0,1-2.92-1.81,6.52,6.52,0,0,1-1.72-3.19,2.58,2.58,0,0,0-.74,1.18,7.14,7.14,0,0,0-.35,1.83l0,.76a8.08,8.08,0,0,0,.09,1.2,4.39,4.39,0,0,0,.55,1.57,1.21,1.21,0,0,0,1,.61,1.51,1.51,0,0,0,1.33-.78,4.57,4.57,0,0,0,.7-1.88,5.13,5.13,0,0,0,3,1l.44,0A8.06,8.06,0,0,1,168.3,48,5.7,5.7,0,0,1,164,49.6h-.1Zm-12.67-4.69a3.65,3.65,0,0,0,.72-1.48,8.06,8.06,0,0,0,.26-1.9A7.28,7.28,0,0,0,152,39.7a8.33,8.33,0,0,1-2.33-1.51,3,3,0,0,0-1,1.66,8.07,8.07,0,0,0-.3,2.24v.22a6.24,6.24,0,0,0,.46,2.25,1.35,1.35,0,0,0,1.24.94A1.41,1.41,0,0,0,151.27,44.93Z" transform="translate(0 -9.55)"/><path class="cls-1" d="M172.8,33.65l6.54-.28,0,1a5.31,5.31,0,0,1,3.06-.94c3.64,0,6.06,3.6,6.06,8,0,4.55-2.54,8-6.06,8a5.23,5.23,0,0,1-2.95-.87l.05,6.61-5.94,1.18Zm9.77,11a5.1,5.1,0,0,0,.54-1.86,7.57,7.57,0,0,0,.06-1q0-.63-.09-1.26a5.22,5.22,0,0,0-.59-1.84,1.28,1.28,0,0,0-1.17-.76,1.38,1.38,0,0,0-1.13.5,3,3,0,0,0-.57,1.33,10.77,10.77,0,0,0-.17,1.88,9,9,0,0,0,.19,1.86,3.28,3.28,0,0,0,.63,1.35,1.47,1.47,0,0,0,1.16.5A1.26,1.26,0,0,0,182.57,44.6Z" transform="translate(0 -9.55)"/><path class="cls-1" d="M202.74,50.18a3.29,3.29,0,0,1-2.73-2,5.46,5.46,0,0,1-3.82,1.53A5.06,5.06,0,0,1,193,48.59a7.13,7.13,0,0,1-2.12-2.88,11,11,0,0,1,0-8,7.28,7.28,0,0,1,2.12-2.9,5,5,0,0,1,3.17-1.08,5.41,5.41,0,0,1,2.6.67l-.08-1.3,6.53.74-.46,9.38v.22c0,1,.24,1.53.72,1.61l.18,0a2.23,2.23,0,0,0,1.52-.94,6.92,6.92,0,0,0,1.33-3c.07-.11.14-.18.24-.18l0,0a.4.4,0,0,1,.28.26,4.92,4.92,0,0,1,.17,1.27,9.61,9.61,0,0,1-3.2,6.65,5.31,5.31,0,0,1-3.1,1h-.23Zm-4.4-5.06a3,3,0,0,0,.63-1.35,8.34,8.34,0,0,0,.2-1.86l0-.57a5.88,5.88,0,0,0-.5-2.31,1.45,1.45,0,0,0-1.37-.84,1.33,1.33,0,0,0-1.14.76,5.15,5.15,0,0,0-.61,1.87,7.88,7.88,0,0,0-.09,1.2c0,.33,0,.66.05,1a4.8,4.8,0,0,0,.56,1.84,1.25,1.25,0,0,0,1.13.76,1.47,1.47,0,0,0,1.16-.5Z" transform="translate(0 -9.55)"/><path class="cls-1" d="M216.9,31.64h-.22a4.46,4.46,0,0,0-2,.48,3.64,3.64,0,0,0-1.9,2.82,2.36,2.36,0,0,0,0,.46,4,4,0,0,0,1.13,2.77,6.49,6.49,0,0,1-2.35.44h-.26a3,3,0,0,1-2.14-1,5.41,5.41,0,0,1-1-3.16V34a7.3,7.3,0,0,1,.74-3.21,6.75,6.75,0,0,1,2.82-2.9,8.29,8.29,0,0,1,3.88-.9l.46,0a40.29,40.29,0,0,1,5,.52c1.72.3,4.71.72,4.71.72a5.51,5.51,0,0,0,3.66-.89l.81,2.84a7.69,7.69,0,0,1-3.05,1.68,14.5,14.5,0,0,1-3.66.31L223,50.56l-5.3,1.11Z" transform="translate(0 -9.55)"/><path class="cls-1" d="M226.17,33.8l7-.2-.06,1.53a4.59,4.59,0,0,1,3.24-1.24,8.68,8.68,0,0,1,3,.65L237.85,40a4.61,4.61,0,0,0-2.2-.76,1.9,1.9,0,0,0-1.5.73q-1.23,1.45-1.5,5.74l-.15,3.49-5.61.79Z" transform="translate(0 -9.55)"/><path class="cls-1" d="M260.67,49.62a4.89,4.89,0,0,1-3.2-1.09,7,7,0,0,1-2.1-2.92,11,11,0,0,1-.72-4.1c0-.44.06-.87.11-1.29a2.94,2.94,0,0,1-1.7.68l-.24,0a4,4,0,0,1-1.75-.5,2.16,2.16,0,0,0,.54.46c.2.11.41.2.59.28l.3.13c.07.05.13.09.13.13a11,11,0,0,1-.79,4,7.09,7.09,0,0,1-2.29,3.06A5.78,5.78,0,0,1,246,49.61h-.2a4.84,4.84,0,0,1-3.18-1.09,7,7,0,0,1-2.12-2.92,10.76,10.76,0,0,1-.7-3.93V41.5a10.61,10.61,0,0,1,.85-4.08,7.47,7.47,0,0,1,2.2-2.92,5.07,5.07,0,0,1,3.23-1.11,6.09,6.09,0,0,1,4.34,1.81c.2.2.37.41.56.63a6.27,6.27,0,0,0,1.4,1.27,2.52,2.52,0,0,0,1.38.42,2.55,2.55,0,0,0,.39,0,3.89,3.89,0,0,0,2.12-1.38s0-.06,0-.06a6.55,6.55,0,0,1,2-2,5.06,5.06,0,0,1,2.66-.72,6,6,0,0,1,4.6,2.1,8.59,8.59,0,0,1,1.92,4.7,3.07,3.07,0,0,0,1.59-.57,3.36,3.36,0,0,0,1.18-2.1c.07-.11.15-.18.24-.18l.05,0a.35.35,0,0,1,.28.26,3.38,3.38,0,0,1,.2,1.14,4.65,4.65,0,0,1-.07.83A5.23,5.23,0,0,1,268.89,43a3.7,3.7,0,0,1-1.94.55,3.92,3.92,0,0,1-1.13-.17,6.08,6.08,0,0,1-2.92-1.81,6.52,6.52,0,0,1-1.72-3.19,2.58,2.58,0,0,0-.74,1.18,6.74,6.74,0,0,0-.35,1.83l0,.76a8.08,8.08,0,0,0,.09,1.2,4.39,4.39,0,0,0,.55,1.57,1.21,1.21,0,0,0,1.05.61,1.51,1.51,0,0,0,1.33-.78,4.57,4.57,0,0,0,.7-1.88,5.13,5.13,0,0,0,3,1l.44,0A8.06,8.06,0,0,1,265,48a5.68,5.68,0,0,1-4.26,1.62h-.1ZM248,44.94a3.65,3.65,0,0,0,.72-1.48,8.2,8.2,0,0,0,.26-1.9,7.17,7.17,0,0,0-.24-1.85,8.54,8.54,0,0,1-2.32-1.52,3,3,0,0,0-1,1.67,8,8,0,0,0-.3,2.23v.22a6.24,6.24,0,0,0,.46,2.25,1.34,1.34,0,0,0,1.24.94,1.44,1.44,0,0,0,1.18-.57Z" transform="translate(0 -9.55)"/><path class="cls-1" d="M269.53,33.65l6.54-.28,0,1a5.29,5.29,0,0,1,3.06-.94c3.64,0,6.05,3.6,6.05,8,0,4.55-2.53,8-6.05,8a5.23,5.23,0,0,1-2.95-.87l.05,6.61-5.95,1.18Zm9.77,11a5.1,5.1,0,0,0,.54-1.86c0-.32.05-.63.05-1a8.9,8.9,0,0,0-.09-1.26,5.22,5.22,0,0,0-.59-1.84,1.28,1.28,0,0,0-1.16-.76,1.38,1.38,0,0,0-1.13.5,2.93,2.93,0,0,0-.57,1.33,9.89,9.89,0,0,0-.17,1.88,8.32,8.32,0,0,0,.18,1.86,3.41,3.41,0,0,0,.63,1.35,1.48,1.48,0,0,0,1.16.5A1.26,1.26,0,0,0,279.3,44.6Z" transform="translate(0 -9.55)"/><path class="cls-1" d="M299.47,50.18a3.32,3.32,0,0,1-2.74-2,5.43,5.43,0,0,1-3.82,1.53,5,5,0,0,1-3.16-1.09,7.13,7.13,0,0,1-2.12-2.88,11,11,0,0,1,0-8,7.19,7.19,0,0,1,2.12-2.9,5,5,0,0,1,3.16-1.08,5.38,5.38,0,0,1,2.6.67l-.07-1.31,6.53.74-.46,9.38v.22c0,1,.24,1.53.72,1.61l.19,0a2.23,2.23,0,0,0,1.51-.94,6.92,6.92,0,0,0,1.33-3c.07-.11.15-.19.24-.19l.05,0a.43.43,0,0,1,.28.26A5.06,5.06,0,0,1,306,42.5a9.53,9.53,0,0,1-3.2,6.65,5.29,5.29,0,0,1-3.1,1h-.23Zm-4.4-5.06a3,3,0,0,0,.63-1.35,7.79,7.79,0,0,0,.2-1.86l0-.57a5.88,5.88,0,0,0-.5-2.31,1.43,1.43,0,0,0-1.37-.84,1.33,1.33,0,0,0-1.14.76,5.15,5.15,0,0,0-.61,1.87,7.88,7.88,0,0,0-.09,1.2,8.51,8.51,0,0,0,.06,1,4.78,4.78,0,0,0,.55,1.84,1.27,1.27,0,0,0,1.13.76,1.47,1.47,0,0,0,1.16-.5Z" transform="translate(0 -9.55)"/><path class="cls-1" d="M124.44,60.5a2.44,2.44,0,0,0-1.61,1,4.2,4.2,0,0,0-.74,1.83,6.61,6.61,0,0,0-.08,1,5.55,5.55,0,0,0,.09,1,3,3,0,0,0,.61,1.45,2.6,2.6,0,0,1-1.4.44,1.84,1.84,0,0,1-.33,0,1.92,1.92,0,0,1-1.4-1,4.07,4.07,0,0,1-.43-2.06l0-.62a5.29,5.29,0,0,1,1.37-3.31,6.07,6.07,0,0,1,2.76-1.6,12.16,12.16,0,0,1,3.28-.48c.42,0,.85,0,1.27,0s1,0,1.46,0a11.73,11.73,0,0,1,2.56.38,6.06,6.06,0,0,1,2.14,1,4.77,4.77,0,0,1,1.46,1.87,7.2,7.2,0,0,1,.55,3,5.77,5.77,0,0,1-3.7,5.41,4.76,4.76,0,0,1-3.38,0l0,4.11-4.09.82Zm6.05,7.4a3.53,3.53,0,0,0,1.42-1.42,4.61,4.61,0,0,0,.23-4.08A3.38,3.38,0,0,0,131,60.87a2.79,2.79,0,0,0-1.72-.49h-.4l.06,7.43a1.63,1.63,0,0,0,.86.28,1.88,1.88,0,0,0,.73-.19Z" transform="translate(0 -9.55)"/><path class="cls-1" d="M139.63,72.6a5.36,5.36,0,0,1-2.1-2.6,7.93,7.93,0,0,1-.61-3.07v-.46A5.83,5.83,0,0,1,138,63.32a3.75,3.75,0,0,1,2.85-1.49l.38,0a4.27,4.27,0,0,1,3.65,1.46,4.64,4.64,0,0,1,.86,2.88,8,8,0,0,1-.11,1.29l-5,.4V68a3.85,3.85,0,0,0,.1.83,2.29,2.29,0,0,0,.37.88,2.27,2.27,0,0,0,1.87,1h.3a4.52,4.52,0,0,0,2.41-1.17,4.37,4.37,0,0,0,1.41-2.3c0-.08.09-.13.15-.13h.05a.26.26,0,0,1,.17.18,2.16,2.16,0,0,1,.08.72,4.53,4.53,0,0,1-.08.74,5,5,0,0,1-1.71,3.05,6.11,6.11,0,0,1-3.05,1.4,5.55,5.55,0,0,1-.82.06A4.32,4.32,0,0,1,139.63,72.6Zm3.44-6.21a2.12,2.12,0,0,0-.49-1.22.76.76,0,0,0-.56-.28.52.52,0,0,0-.21,0,1.12,1.12,0,0,0-.72.62,3.52,3.52,0,0,0-.4,1.21Z" transform="translate(0 -9.55)"/><path class="cls-1" d="M148.28,73a2.93,2.93,0,0,1-1.07-1.77,20.74,20.74,0,0,1-.46-3.6c-.09-1.5-.13-3.07-.17-4.68l-1.3.07,0-3.21,1.28.09c0-.76,0-1.42-.07-2l5-.25c0,.77-.1,1.63-.17,2.58l1.16.09,0,2.3-1.33.07c-.12,1.18-.2,2.3-.25,3.39,0,.61-.05,1.17-.05,1.69s0,.82,0,1.19c.06.59.25.88.58.88h0a1.66,1.66,0,0,0,1.1-.74,4.58,4.58,0,0,0,.85-1.94.22.22,0,0,1,.15-.13l0,0a.28.28,0,0,1,.18.17,3.8,3.8,0,0,1,.11.89,5.82,5.82,0,0,1-.4,2,5.55,5.55,0,0,1-1.77,2.57,3.86,3.86,0,0,1-1.72.69l-.35,0A2.19,2.19,0,0,1,148.28,73Z" transform="translate(0 -9.55)"/><path class="cls-1" d="M165.3,74.74a6,6,0,0,1-2.76-.6,4,4,0,0,1-1.86-1.82,4,4,0,0,1-.42-1.85,6,6,0,0,1,.1-1l3.4-.55a4.1,4.1,0,0,0,.46,2.28,1.36,1.36,0,0,0,1.09.63h0a1.5,1.5,0,0,0,1.09-.47,1.14,1.14,0,0,0,.4-.88v-.17a2.81,2.81,0,0,0-1-1.66,14,14,0,0,0-1.92-1.29,12.76,12.76,0,0,1-2.39-1.66,4.2,4.2,0,0,1-1.36-2.5,4.49,4.49,0,0,1,0-.51,4.32,4.32,0,0,1,.72-2.38,4.93,4.93,0,0,1,2.26-1.9,7.29,7.29,0,0,1,2.84-.58h.4a5,5,0,0,1,2.78,1,4.77,4.77,0,0,1,1.62,2.46,3.33,3.33,0,0,1,.13.94,3.65,3.65,0,0,1-.53,1.85l-3.79-.32a3,3,0,0,0,.5-1.48,1.34,1.34,0,0,0-.06-.4A1.28,1.28,0,0,0,166,61a2.34,2.34,0,0,0-.45-.07,2,2,0,0,0-.92.26,1.86,1.86,0,0,0-.86,1.38v.09a1.44,1.44,0,0,0,.63,1.08,17.42,17.42,0,0,0,1.76,1.18,17,17,0,0,1,2.62,1.81,4.57,4.57,0,0,1,1.81,3.7,3.38,3.38,0,0,1-.41,1.71A4.47,4.47,0,0,1,168.27,74a6.44,6.44,0,0,1-2.85.72h-.12Z" transform="translate(0 -9.55)"/><path class="cls-1" d="M179.76,72.67a4.29,4.29,0,0,1-.89-2.69l0-.37-.06-1.09c0-.41-.08-.82-.13-1.22a6,6,0,0,0-.25-1c-.12-.28-.26-.4-.43-.4a.77.77,0,0,0-.64.43,4.24,4.24,0,0,0-.45,1.1,13,13,0,0,0-.29,1.38,12,12,0,0,0-.14,1.33l-.06,2.38-4.1.82-.52-15.57,5.06-.21-.17,5.56a2.76,2.76,0,0,1,2.25-1,3.3,3.3,0,0,1,2.26,1,4.8,4.8,0,0,1,1.09,2.17,13.22,13.22,0,0,1,.34,2.58v.72a4.49,4.49,0,0,0,.06.73c.07.36.24.54.55.57a1.59,1.59,0,0,0,1.11-.73,4.4,4.4,0,0,0,.85-1.94c.06-.08.1-.13.17-.13h0a.26.26,0,0,1,.18.17,3.28,3.28,0,0,1,.12.88,5.89,5.89,0,0,1-.41,2,5.55,5.55,0,0,1-1.77,2.57,3.8,3.8,0,0,1-2,.71h-.16A2.14,2.14,0,0,1,179.76,72.67Z" transform="translate(0 -9.55)"/><path class="cls-1" d="M189,73a3.29,3.29,0,0,1-2.17-.74,4.84,4.84,0,0,1-1.45-2,7.11,7.11,0,0,1-.5-2.7v-.11a7.26,7.26,0,0,1,.61-2.8,5,5,0,0,1,1.5-2,3.49,3.49,0,0,1,2.21-.76,4.11,4.11,0,0,1,3.16,1.45,5.79,5.79,0,0,1,1.32,3.22,2.16,2.16,0,0,0,1.09-.4,2.28,2.28,0,0,0,.81-1.45.22.22,0,0,1,.15-.13h.05a.25.25,0,0,1,.19.18,2.33,2.33,0,0,1,.14.78,2.69,2.69,0,0,1-.06.57,3.53,3.53,0,0,1-1.42,2.32,2.51,2.51,0,0,1-1.33.38,2.87,2.87,0,0,1-.77-.11,4.43,4.43,0,0,1-2-1.24,4.62,4.62,0,0,1-1.16-2.19,1.55,1.55,0,0,0-.51.81,4.4,4.4,0,0,0-.24,1.25l0,.52a5.67,5.67,0,0,0,.07.82,2.79,2.79,0,0,0,.38,1.08.8.8,0,0,0,.72.41,1.06,1.06,0,0,0,.92-.53,3.31,3.31,0,0,0,.48-1.29,3.5,3.5,0,0,0,2.07.71l.3,0A5.58,5.58,0,0,1,192,71.88,4,4,0,0,1,189,73H189Z" transform="translate(0 -9.55)"/><path class="cls-1" d="M195.14,62.05l4.48-.19,0,.69a3.67,3.67,0,0,1,2.1-.65c2.5,0,4.16,2.47,4.16,5.49s-1.74,5.47-4.16,5.47a3.58,3.58,0,0,1-2-.6l0,4.54-4.08.81Zm6.7,7.52a3.43,3.43,0,0,0,.37-1.28,4.73,4.73,0,0,0,0-.65,6.11,6.11,0,0,0-.07-.86,3.56,3.56,0,0,0-.4-1.27A.88.88,0,0,0,201,65a1,1,0,0,0-.77.35,2.14,2.14,0,0,0-.4.91,7,7,0,0,0-.12,1.29,5.52,5.52,0,0,0,.14,1.28,2.45,2.45,0,0,0,.42.93,1,1,0,0,0,.8.34.88.88,0,0,0,.79-.52Z" transform="translate(0 -9.55)"/></svg>
