<svg xmlns="http://www.w3.org/2000/svg" viewBox="0 0 955.54 406.01"><defs><style>.cls-1{fill:#00a0cd;}.cls-2{fill:#244fc3;}.cls-3{fill:#fff;}</style></defs><title>Recurso 2</title><g id="Capa_2" data-name="Capa 2"><g id="Capa_1-2" data-name="Capa 1"><g id="g5"><path id="path7" class="cls-1" d="M263.26,405.88H246.14c-64.37-5.13-112.74-27.16-147.66-62.1a40.68,40.68,0,0,0-7-7c-2.37-1.24-5.09-1.79-7.29-2.86a88.33,88.33,0,0,1-35.8-33A100.93,100.93,0,0,1,36,236.67c-16.88-13.76-33-28.33-36-56V172a61.37,61.37,0,0,1,59.25-59.13,227,227,0,0,1,71.42-75.42A212.91,212.91,0,0,1,239.8,0h16.46A195.37,195.37,0,0,1,396.35,63.71a245.09,245.09,0,0,1,56.26,146.38A53.36,53.36,0,0,1,495.1,257.7V265c-5,33.72-31.62,45.88-66.85,49.41-32.45,53.13-83.79,87.28-165.06,91.6Z"/><path id="path9" class="cls-1" d="M409.61,314.94c-4.07.21-7.25-.54-11.4-.32a30.82,30.82,0,0,1-24.41,21.64A134.06,134.06,0,0,1,338,373.65,156.83,156.83,0,0,0,409.61,315Z"/><path id="path11" class="cls-1" d="M287.29,388.48a125,125,0,0,0,21.26-4.13,91.75,91.75,0,0,0,17.12-9.5,124.46,124.46,0,0,0,39-40.57,25.32,25.32,0,0,1-9.2-24.09c-9.78-2.37-20.65-3.64-30.4-6h-.64c-19.47,44-49.4,77.75-107.1,83.65A208.27,208.27,0,0,0,287.29,388.48Z"/><path id="path13" class="cls-1" d="M140.32,360.59a210.45,210.45,0,0,0,40.58,18.72A95.76,95.76,0,0,0,197.67,384a97.11,97.11,0,0,0,43.74-6.65,132.76,132.76,0,0,0,75.74-74.82c-11.48-2.75-23-5.43-34.21-8.53h-.65a36.59,36.59,0,0,1-46.09,23.53h0c-.38-.13-.76-.25-1.13-.39a119.37,119.37,0,0,1-97.26,41.51C136.86,359.53,139.24,359.93,140.32,360.59Z"/><path id="path15" class="cls-1" d="M53.19,285.79a68.08,68.08,0,0,0,66.52,41.89,78.43,78.43,0,0,0,50.07-25.36,49.7,49.7,0,0,1-21.64,26,71,71,0,0,1-35.16,12c-.2.87,1.49,2,2.83,3.16a59.19,59.19,0,0,0,12.06,9.17,50.81,50.81,0,0,0,16.81,1,121.72,121.72,0,0,0,82.49-41.5c-9.39-7-11.83-26.9-7.31-41.13-21.87-12.16-44.32-23.65-65.92-36.12a52.61,52.61,0,0,1-45.27,44,30.67,30.67,0,0,1-34.54-26.22c0-.34-.09-.67-.12-1,2.47,1.76,5.09,6.19,8.87,7.62a71.49,71.49,0,0,1-2.79-34.19,39.71,39.71,0,0,0,1.58-6.34c-.3-2.6-5.87-7.12-9.8-9.52A18.42,18.42,0,0,0,57,205.82c-4.33,1.62-6.66,12.38-8,17.12a92.93,92.93,0,0,0-3.46,21.21A86.22,86.22,0,0,0,53.17,286Z"/><path id="path17" class="cls-1" d="M190.38,25a93.49,93.49,0,0,0-18.07,7,209.64,209.64,0,0,0-93.46,81.13,225.52,225.52,0,0,1,79.83,29.71,50.66,50.66,0,0,0,10.45,5.06,59.86,59.86,0,0,0,10.43-5.61,84.37,84.37,0,0,1,36.79-11.14,426.89,426.89,0,0,1,28.08-64.89,175.82,175.82,0,0,0-52.85-40.58C191.3,25.5,191.07,24.87,190.38,25Z"/><path id="path19" class="cls-1" d="M393.47,193.6c-5-27.74-11.69-53.79-18.68-79.55A217.91,217.91,0,0,0,322.5,85.92a226.6,226.6,0,0,0-63-17.12,7.1,7.1,0,0,0-3.51-.35c-1.67.5-3.07,5.81-4.08,8.27-8.51,19.61-19.09,40.56-28.47,58A221,221,0,0,1,247.2,188a426.89,426.89,0,0,0,95.32,37.13,57.2,57.2,0,0,0,15.15,3.47c2.66-.43,6.73-6.49,8.9-8.85,8.66-9.41,17.81-17.58,26.9-26Z"/><path id="path21" class="cls-1" d="M372.87,231a157,157,0,0,0,46.62,0,122.07,122.07,0,0,0-20-31.38C390.57,209.82,381.1,221.11,372.87,231Z"/><path id="path23" class="cls-1" d="M217.28,138.14a133.23,133.23,0,0,0-35.2,16.51c16.2,8.5,32.45,17,49.13,25-4-14.46-9.08-27.92-14-41.53Z"/><path id="path25" class="cls-1" d="M367.47,59.24A185,185,0,0,0,257.88,16.79a227.43,227.43,0,0,0-49.77,3.47,148.39,148.39,0,0,1,45,38.38A186.29,186.29,0,0,1,376.72,103a34.49,34.49,0,0,0,15.15-18.37A100,100,0,0,0,367.47,59.24Z"/><path id="path27" class="cls-1" d="M435.28,210.09a191.21,191.21,0,0,0-9.16-54.46,241.41,241.41,0,0,0-26-59.88,46.58,46.58,0,0,1-16.17,14,439.55,439.55,0,0,1,17.33,71,92.47,92.47,0,0,0,1,11.39c.8,2.37,6,5.2,8.55,7.6a88.14,88.14,0,0,1,20.6,27.92c5.5-3.42,3.79-11.49,3.79-17.45Z"/><path id="path29" class="cls-1" d="M477.45,273.13a42,42,0,0,0-3.16-32,37.6,37.6,0,0,0-20.61-18.38,20.77,20.77,0,0,1-15.85,15.82A127.68,127.68,0,0,1,401,243.32,283.08,283.08,0,0,1,297.45,223,1027.22,1027.22,0,0,1,185.6,169.79c-17.33-9-35-19-55.14-27.59a127.93,127.93,0,0,0-66.85-14.57c-24.76,2.81-41.82,13.82-46.92,35.77a64.11,64.11,0,0,0,20.59,60.66c0,.32.41.26.67.32C41.76,212,43,195,53.46,188.89c15.41-9.08,37-1.34,51,5.06,26.78,12.24,50.3,28.77,75.06,42.09a608.36,608.36,0,0,0,109.93,46.57A428.19,428.19,0,0,0,427,301C451.45,299.9,471.23,291.11,477.45,273.13Z"/></g><path id="path41" class="cls-2" d="M263.26,405.88H246.14c-64.37-5.13-112.74-27.16-147.66-62.1a40.68,40.68,0,0,0-7-7c-2.37-1.24-5.09-1.79-7.29-2.86a88.33,88.33,0,0,1-35.8-33A101.06,101.06,0,0,1,36,236.67c-16.88-13.76-33-28.33-36-56V172a61.37,61.37,0,0,1,59.25-59.13,227,227,0,0,1,71.42-75.42A212.91,212.91,0,0,1,239.8,0h16.46A195.37,195.37,0,0,1,396.35,63.71a245.09,245.09,0,0,1,56.26,146.38A53.36,53.36,0,0,1,495.1,257.7V265c-5,33.72-31.62,45.88-66.85,49.41-32.45,53.13-83.79,87.28-165.06,91.6Z"/><path id="path43" class="cls-3" d="M409.61,314.94c-4.07.21-7.25-.54-11.4-.32a30.82,30.82,0,0,1-24.41,21.64A134.06,134.06,0,0,1,338,373.65,156.83,156.83,0,0,0,409.61,315Z"/><path id="path45" class="cls-3" d="M287.29,388.48a125,125,0,0,0,21.26-4.13,91.75,91.75,0,0,0,17.12-9.5,124.46,124.46,0,0,0,39-40.57,25.32,25.32,0,0,1-9.2-24.09c-9.78-2.37-20.65-3.64-30.4-6h-.64c-19.47,44-49.4,77.75-107.1,83.65A208.27,208.27,0,0,0,287.29,388.48Z"/><path id="path47" class="cls-3" d="M140.32,360.59a210.2,210.2,0,0,0,40.55,18.72,96.17,96.17,0,0,0,16.8,4.72,97.11,97.11,0,0,0,43.74-6.65,132.76,132.76,0,0,0,75.74-74.82c-11.48-2.75-23-5.43-34.21-8.53h-.65a36.6,36.6,0,0,1-46.11,23.52h0l-1.11-.38a119.37,119.37,0,0,1-97.26,41.51c-.95.84,1.42,1.23,2.47,1.9Z"/><path id="path49" class="cls-3" d="M53.19,285.79a68.08,68.08,0,0,0,66.52,41.89,78.43,78.43,0,0,0,50.07-25.36,49.7,49.7,0,0,1-21.64,26,71,71,0,0,1-35.16,12c-.2.87,1.49,2,2.83,3.16a59.19,59.19,0,0,0,12.06,9.17,50.81,50.81,0,0,0,16.81,1,121.72,121.72,0,0,0,82.49-41.5c-9.39-7-11.83-26.9-7.31-41.13-21.87-12.16-44.32-23.65-65.92-36.12a52.59,52.59,0,0,1-45.27,44,30.67,30.67,0,0,1-34.54-26.22c0-.34-.09-.67-.12-1,2.47,1.76,5.09,6.19,8.87,7.62a71.49,71.49,0,0,1-2.79-34.19,37.21,37.21,0,0,0,1.58-6.34c-.3-2.6-5.87-7.12-9.8-9.52A18.42,18.42,0,0,0,57,205.82c-4.33,1.62-6.66,12.38-8,17.12a92.93,92.93,0,0,0-3.46,21.21A86.22,86.22,0,0,0,53.17,286Z"/><path id="path51" class="cls-3" d="M190.38,25a93.49,93.49,0,0,0-18.07,7,209.64,209.64,0,0,0-93.46,81.13,225.52,225.52,0,0,1,79.83,29.71,50.66,50.66,0,0,0,10.45,5.06,59.86,59.86,0,0,0,10.43-5.61,84.37,84.37,0,0,1,36.79-11.14,426.89,426.89,0,0,1,28.08-64.89,176,176,0,0,0-52.85-40.58C191.3,25.5,191.07,24.87,190.38,25Z"/><path id="path53" class="cls-3" d="M393.47,193.6c-5-27.74-11.69-53.79-18.69-79.55a216.89,216.89,0,0,0-52.27-28.13,226.26,226.26,0,0,0-63-17.12,7.1,7.1,0,0,0-3.51-.35c-1.67.5-3.07,5.81-4.11,8.27-8.47,19.61-19.06,40.56-28.47,58A220.59,220.59,0,0,1,247.19,188a427,427,0,0,0,95.31,37.13,57.18,57.18,0,0,0,15.16,3.47c2.66-.43,6.73-6.49,8.9-8.85,8.66-9.41,17.81-17.58,26.9-26Z"/><path id="path55" class="cls-3" d="M372.89,231a156.87,156.87,0,0,0,46.6,0,122.07,122.07,0,0,0-20-31.38C390.57,209.92,381.08,221.11,372.89,231Z"/><path id="path57" class="cls-3" d="M217.28,138.14a133.23,133.23,0,0,0-35.2,16.51c16.2,8.5,32.45,17,49.13,25-4-14.46-9.08-27.92-14-41.53Z"/><path id="path59" class="cls-3" d="M367.47,59.24A185,185,0,0,0,257.88,16.79a227.43,227.43,0,0,0-49.77,3.47,148.39,148.39,0,0,1,45,38.38A186.29,186.29,0,0,1,376.72,103a34.49,34.49,0,0,0,15.15-18.37A100,100,0,0,0,367.47,59.24Z"/><path id="path61" class="cls-3" d="M435.28,210.09a191.21,191.21,0,0,0-9.16-54.46,242.48,242.48,0,0,0-26-59.88,47,47,0,0,1-16.17,14,439.55,439.55,0,0,1,17.33,71,90.56,90.56,0,0,0,1,11.39c.78,2.37,6,5.2,8.53,7.6a88.66,88.66,0,0,1,20.6,27.92c5.5-3.42,3.79-11.49,3.79-17.45Z"/><path id="path63" class="cls-3" d="M477.45,273.13a42,42,0,0,0-3.16-32,37.6,37.6,0,0,0-20.61-18.38,20.77,20.77,0,0,1-15.85,15.82A127.68,127.68,0,0,1,401,243.32,283.08,283.08,0,0,1,297.45,223,1023.52,1023.52,0,0,1,185.6,169.79c-17.33-9-35-19-55.14-27.59a127.93,127.93,0,0,0-66.85-14.57c-24.76,2.81-41.82,13.82-46.92,35.77a64.11,64.11,0,0,0,20.59,60.66c0,.32.38.26.67.32C41.76,212,43,195,53.45,188.89c15.43-9.08,37-1.34,51.05,5.06,26.76,12.24,50.28,28.77,75,42.09a608.36,608.36,0,0,0,109.93,46.57A428.27,428.27,0,0,0,427,301C451.45,299.9,471.23,291.11,477.45,273.13Z"/><path d="M508.7,74.87h22V119l41.37-44.09H601l-43.94,44,46.16,63h-28.8l-33-46.73-10.77,10.92v35.79h-22Z"/><path d="M680,172.28q-10,12.36-30.43,12.36t-30.42-12.38q-10-12.37-10-29.79,0-17.11,10-29.67t30.43-12.54q20.4,0,30.42,12.56t10,29.68Q690.08,159.92,680,172.28Zm-16.55-11.45q4.86-6.45,4.87-18.34t-4.86-18.31q-4.86-6.42-13.94-6.42t-14,6.41q-4.9,6.42-4.91,18.31t4.9,18.35q4.9,6.45,14,6.45t14-6.45Z"/><path d="M770.88,172.31q-10,12.36-30.43,12.36T710,172.29q-10-12.37-10-29.79,0-17.11,10-29.67t30.43-12.54q20.4,0,30.42,12.56t10,29.68Q780.91,159.95,770.88,172.31Zm-16.55-11.45q4.86-6.45,4.87-18.34t-4.86-18.31q-4.86-6.42-13.94-6.42t-14,6.41q-4.9,6.42-4.91,18.31t4.9,18.34q4.9,6.47,14,6.46T754.33,160.86Z"/><path d="M862.3,111.36Q872,121.6,872,141.43q0,20.91-9.47,31.87t-24.38,11q-9.49,0-15.79-4.72a31,31,0,0,1-6.72-7.63v41.24H795.12V102.89H815v11.69a33.49,33.49,0,0,1,7.16-8.13,26.49,26.49,0,0,1,16.52-5.29A31.31,31.31,0,0,1,862.3,111.36Zm-15.89,14.88q-4.21-7-13.68-7-11.37,0-15.63,10.67a40,40,0,0,0-2.21,14.37q0,13.8,7.4,19.39a17,17,0,0,0,10.42,3.27q8.73,0,13.32-6.67t4.59-17.79A30.94,30.94,0,0,0,846.41,126.24Z"/><path d="M917.92,133.89a32.89,32.89,0,0,0,8.26-1.81q4.47-1.89,4.47-5.88c0-3.24-1.14-5.49-3.42-6.72s-5.63-1.85-10.05-1.86q-7.44,0-10.53,3.63a15,15,0,0,0-2.94,7.26h-20q.66-10.39,5.84-17.07Q897.79,101,917.85,101A50.48,50.48,0,0,1,941,106.16q10.13,5.16,10.13,19.46v36.31c0,2.52,0,5.57.14,9.15q.21,4.06,1.23,5.52a7.4,7.4,0,0,0,3,2.4v3H933.1a22.74,22.74,0,0,1-1.31-4.5c-.24-1.41-.43-3-.58-4.8a42.7,42.7,0,0,1-9.93,7.92,30,30,0,0,1-15.2,3.84q-10.8,0-17.85-6.14t-7-17.4q0-14.59,11.34-21.12,6.23-3.56,18.29-5.08Zm12.65,9.66a24.1,24.1,0,0,1-4,2A33.54,33.54,0,0,1,921,147l-4.71.87q-6.63,1.17-9.52,2.83a9.46,9.46,0,0,0-4.89,8.79c0,3.53,1,6.09,3,7.66a11.4,11.4,0,0,0,7.26,2.36,21.73,21.73,0,0,0,12.5-3.92q5.72-3.92,5.94-14.3Z"/><path d="M579.15,284.23q-9.4,7.84-26.85,7.84H530v38.49H507.79v-107h46q15.88,0,25.33,8.29t9.44,25.63Q588.54,276.4,579.15,284.23Zm-17.06-38.56q-4.25-3.55-11.9-3.56H530v31.52h20.16q7.65,0,11.9-3.84c2.84-2.57,4.25-6.63,4.26-12.2S564.92,248,562.09,245.67Z"/><path d="M688.89,321.08q-12.14,12.5-35.08,12.48t-35.07-12.5q-16.26-15.33-16.25-44.15,0-29.42,16.28-44.15,12.13-12.48,35.08-12.48t35.07,12.5q16.19,14.75,16.17,44.16Q705.09,305.77,688.89,321.08Zm-14-16.27q7.82-9.8,7.82-27.88t-7.8-27.85q-7.8-9.84-21.09-9.84T632.63,249q-7.92,9.81-7.92,27.88t7.91,27.89q7.9,9.81,21.2,9.81t21.09-9.77Z"/><path d="M738.27,297.57q1,7.33,4.08,11,5.55,6.6,19,6.61a41,41,0,0,0,13.12-1.74Q784,310.11,784,301a9.17,9.17,0,0,0-4.68-8.21q-4.7-2.83-14.86-5L753,285.23q-17.09-3.78-23.47-8.21-10.81-7.41-10.81-23.17A30.77,30.77,0,0,1,729.27,230q10.59-9.51,31.1-9.5,17.13,0,29.22,9t12.67,26h-21.5q-.59-9.66-8.63-13.73a29.54,29.54,0,0,0-13.32-2.69q-8.87,0-14.15,3.48a11.06,11.06,0,0,0-5.29,9.73,9.19,9.19,0,0,0,5.21,8.57q3.36,1.89,14.22,4.43l18.78,4.44q12.34,2.91,18.51,7.77,9.57,7.56,9.57,21.86a30.76,30.76,0,0,1-11.35,24.36q-11.34,9.69-32,9.69-21.13,0-33.24-9.56T717,297.59Z"/></g></g></svg>